<svg xmlns="http://www.w3.org/2000/svg" xmlns:svg="http://www.w3.org/2000/svg" xmlns:xlink="http://www.w3.org/1999/xlink" id="Layer_1" width="100%" height="100%" x="0" y="0" enable-background="new 0 0 22.9 21.6" version="1.1" viewBox="0 0 22.9 21.6" xml:space="preserve"><metadata id="metadata22"/><g id="g11"><path id="Google_13_" d="m 14.5,4.6 h -3.4 c -0.9,0 -2,0.1 -2.9,0.9 -0.7,0.6 -1,1.4 -1,2.2 0,1.3 1,2.6 2.7,2.6 0.2,0 0.3,0 0.5,0 -0.1,0.2 -0.2,0.4 -0.2,0.6 0,0.5 0.3,0.8 0.5,1.1 -0.7,0 -2.1,0.1 -3.1,0.8 -1,0.6 -1.3,1.4 -1.3,2 0,1.2 1.1,2.3 3.5,2.3 2.8,0 4.3,-1.6 4.3,-3.1 0,-1.1 -0.7,-1.7 -1.4,-2.3 l -0.6,-0.5 c -0.2,-0.1 -0.4,-0.3 -0.4,-0.7 0,-0.4 0.2,-0.6 0.5,-0.8 0.7,-0.5 1.4,-1.1 1.4,-2.3 0,-1.2 -0.8,-1.9 -1.2,-2.2 h 1 l 1.1,-0.6 z m -1.4,10 c 0,1 -1.1,1.7 -2.6,1.7 -1.8,0 -2.6,-0.7 -2.6,-1.9 0,-1.2 1,-1.6 1.4,-1.7 0.7,-0.2 1.6,-0.3 1.7,-0.3 0.2,0 0.2,0 0.4,0 1.1,1 1.7,1.4 1.7,2.2 z M 11.7,9.4 C 11.4,9.7 11,9.9 10.6,9.9 9.2,9.9 8.6,8.1 8.6,7 8.6,6.6 8.7,6.1 9,5.8 9.3,5.5 9.7,5.3 10.1,5.3 c 1.4,0 2.1,1.8 2.1,3 0,0.2 -0.1,0.7 -0.5,1.1 z" style="fill:#783189"/><rect id="rect14" width=".7" height="3.6" x="16.4" y="8.7" style="fill:#783189"/><rect id="rect16" width="3.6" height=".7" x="15" y="10.1" style="fill:#783189"/></g></svg>