<svg xmlns="http://www.w3.org/2000/svg" xmlns:xlink="http://www.w3.org/1999/xlink" id="Layer_1" x="0" y="0" enable-background="new 0 0 105 105" version="1.1" viewBox="0 0 105 105" xml:space="preserve"><switch><g><path fill="#764E7F" d="M18,105h69c9.9,0,18-8.1,18-18V18c0-9.9-8.1-18-18-18H18C8.1,0,0,8.1,0,18v69C0,96.9,8.1,105,18,105z"/><path fill="none" stroke="#E7DAEA" stroke-miterlimit="10" stroke-width="2" d="M79,83.1H50.1c-2.8,0-5-2.3-5-5V49.3 c0-2.8,2.3-5,5-5H79c2.8,0,5,2.3,5,5v28.8C84,80.9,81.7,83.1,79,83.1z"/><path fill="#764E7F" stroke="#E7DAEA" stroke-miterlimit="10" stroke-width="2" d="M67,70.2H38.1c-2.8,0-5-2.3-5-5V36.4 c0-2.8,2.3-5,5-5H67c2.8,0,5,2.3,5,5v28.9C72,68,69.7,70.2,67,70.2z"/><path fill="#E7DAEA" d="M53.5,57.6H24.2c-2.8,0-5-2.3-5-5V23.4c0-2.8,2.3-5,5-5h29.2c2.8,0,5,2.3,5,5v29.2 C58.5,55.3,56.2,57.6,53.5,57.6z"/></g></switch></svg>