<svg xmlns="http://www.w3.org/2000/svg" xmlns:xlink="http://www.w3.org/1999/xlink" id="Layer_1" x="0" y="0" enable-background="new 0 0 105 105" version="1.1" viewBox="0 0 105 105" xml:space="preserve"><switch><g><path fill="#764E7F" d="M18,105h69c9.9,0,18-8.1,18-18V18c0-9.9-8.1-18-18-18H18C8.1,0,0,8.1,0,18v69C0,96.9,8.1,105,18,105z"/><ellipse cx="52.3" cy="38.2" fill="#E7DAEA" rx="20.2" ry="19.8"/><rect width="40.3" height="34" x="32.1" y="38.2" fill="#E7DAEA"/><path fill="#764E7F" d="M52.7,25.8c-7,0-13,5.6-13,12.4v30.4h26V38.2C65.7,31.4,59.7,25.8,52.7,25.8z"/><g><defs><rect id="SVGID_1_" width="64.7" height="39.8" x="19.3" y="48.7"/></defs><clipPath id="SVGID_2_"><use overflow="visible" xlink:href="#SVGID_1_"/></clipPath><path fill="#E7DAEA" d="M75.8,85.7H29.2c-2.8,0-5-2.3-5-5V48.5c0-2.8,2.3-5,5-5h46.6c2.8,0,5,2.3,5,5 v32.3C80.8,83.5,78.5,85.7,75.8,85.7z" clip-path="url(#SVGID_2_)"/></g></g></switch></svg>