<svg xmlns="http://www.w3.org/2000/svg" xmlns:xlink="http://www.w3.org/1999/xlink" id="Layer_1" x="0" y="0" enable-background="new 0 0 105 105" version="1.1" viewBox="0 0 105 105" xml:space="preserve"><switch><g><path fill="#764E7F" d="M18,105.1h69c9.9,0,18-8.1,18-18v-69c0-9.9-8.1-18-18-18H18c-9.9,0-18,8.1-18,18v69 C0,97,8.1,105.1,18,105.1z"/><path fill="#E7DAEA" d="M70,27.4c-4.4-3.3-8.3-10.9-8.3-10.9h-9.5H42.1c0,0-3.9,7.6-8.3,10.9C29,31,20.3,32.9,20.3,32.9 s1.2,24.1,5.7,37.1c4.2,12.3,23.3,19.7,26.3,20.4c2-0.8,21.7-8.2,26-20.4c4.5-13.1,5.4-37.1,5.4-37.1S74.8,31,70,27.4z"/><path fill="none" stroke="#764E7F" stroke-miterlimit="10" stroke-width="3" d="M66.8,32.6c-3.6-2.7-6.8-8.5-6.8-8.5h-7.8h-8.2 c0,0-3.2,5.8-6.8,8.5c-4,3-11.1,4.2-11.1,4.2s0.9,19.6,4.6,30.4C34,77.2,49.6,83.3,52.1,83.9c1.6-0.6,17.9-6.7,21.3-16.8 c3.7-10.7,4.4-30.3,4.4-30.3S70.7,35.5,66.8,32.6z"/></g></switch></svg>