<svg xmlns="http://www.w3.org/2000/svg" xmlns:xlink="http://www.w3.org/1999/xlink" id="Layer_1" x="0" y="0" enable-background="new 0 0 105 105" version="1.1" viewBox="0 0 105 105" xml:space="preserve"><switch><g><path fill="#764E7F" d="M18.1,105h69c9.9,0,18-8.1,18-18V18c0-9.9-8.1-18-18-18h-69c-9.9,0-18,8.1-18,18v69 C0.1,96.9,8.2,105,18.1,105z"/><path fill="#FFF" d="M89.5,39.7H34.1c-2.2,0-4-1.8-4-4v-7.4c0-2.2,1.8-4,4-4h55.4c2.2,0,4,1.8,4,4v7.4 C93.5,37.9,91.7,39.7,89.5,39.7z"/><path fill="#E7DAEA" d="M89.5,59.5H34.1c-2.2,0-4-1.8-4-4v-7.4c0-2.2,1.8-4,4-4h55.4c2.2,0,4,1.8,4,4v7.4 C93.5,57.7,91.7,59.5,89.5,59.5z"/><path fill="#E7DAEA" d="M89.5,79.2H34.1c-2.2,0-4-1.8-4-4v-7.4c0-2.2,1.8-4,4-4h55.4c2.2,0,4,1.8,4,4v7.4 C93.5,77.4,91.7,79.2,89.5,79.2z"/><path fill="#E7DAEA" d="M89.5,39.7H34.1c-2.2,0-4-1.8-4-4v-7.4c0-2.2,1.8-4,4-4h55.4c2.2,0,4,1.8,4,4v7.4 C93.5,37.9,91.7,39.7,89.5,39.7z"/><path fill="#764E7F" d="M38.3,36.3h-3.1c-1.1,0-2-0.9-2-2v0c0-1.1,0.9-2,2-2h3.1c1.1,0,2,0.9,2,2v0C40.3,35.4,39.4,36.3,38.3,36.3 z"/><path fill="#764E7F" d="M38.3,56.3h-3.1c-1.1,0-2-0.9-2-2v0c0-1.1,0.9-2,2-2h3.1c1.1,0,2,0.9,2,2v0C40.3,55.4,39.4,56.3,38.3,56.3 z"/><path fill="#764E7F" d="M38.3,76.3h-3.1c-1.1,0-2-0.9-2-2v0c0-1.1,0.9-2,2-2h3.1c1.1,0,2,0.9,2,2v0C40.3,75.4,39.4,76.3,38.3,76.3 z"/><circle cx="14.6" cy="45.9" r="1.6" fill="#E7DAEA"/><circle cx="14.6" cy="51.2" r="1.6" fill="#E7DAEA"/><circle cx="20.3" cy="51.2" r="1.6" fill="#E7DAEA"/><circle cx="14.6" cy="56.4" r="1.6" fill="#E7DAEA"/><circle cx="14.6" cy="61.7" r="1.6" fill="#E7DAEA"/><circle cx="14.6" cy="66.9" r="1.6" fill="#E7DAEA"/><circle cx="14.6" cy="72.3" r="1.6" fill="#E7DAEA"/><circle cx="20.2" cy="72.3" r="1.6" fill="#E7DAEA"/><circle cx="14.6" cy="30.3" r="1.6" fill="#E7DAEA"/><circle cx="20.3" cy="30.3" r="1.6" fill="#E7DAEA"/><circle cx="26.1" cy="51.2" r="1.6" fill="#E7DAEA"/><circle cx="26.1" cy="72.3" r="1.6" fill="#E7DAEA"/><circle cx="26.1" cy="30.3" r="1.6" fill="#E7DAEA"/><circle cx="14.6" cy="35.6" r="1.6" fill="#E7DAEA"/><circle cx="14.6" cy="40.8" r="1.6" fill="#E7DAEA"/></g></switch></svg>