<svg xmlns="http://www.w3.org/2000/svg" xmlns:xlink="http://www.w3.org/1999/xlink" id="Layer_1" x="0" y="0" enable-background="new 0 0 105 105" version="1.1" viewBox="0 0 105 105" xml:space="preserve"><switch><g><path fill="#764E7F" d="M18,105h69c9.9,0,18-8.1,18-18V18c0-9.9-8.1-18-18-18H18C8.1,0,0,8.1,0,18v69C0,96.9,8.1,105,18,105z"/><path fill="#764E7F" stroke="#E7DAEA" stroke-miterlimit="10" stroke-width="3" d="M83.8,87.8H23.3c-2.8,0-5-2.3-5-5V22.3 c0-2.8,2.3-5,5-5h60.5c2.8,0,5,2.3,5,5v60.5C88.8,85.5,86.6,87.8,83.8,87.8z"/><path fill="#E7DAEA" stroke="#764E7F" stroke-miterlimit="10" stroke-width="3" d="M74,78H33.1c-2.8,0-5-2.3-5-5V32.1 c0-2.7,2.3-5,5-5H74c2.8,0,5,2.3,5,5V73C79,75.8,76.8,78,74,78z"/><polygon fill="#E7DAEA" stroke="#764E7F" stroke-linejoin="round" stroke-miterlimit="10" stroke-width="3" points="53.9 52.3 39.5 47.5 53.9 52.3 54.1 37.2 54 52.6 68.5 48 54 52.6 62.9 64.8 54 52.4 44.9 64.6"/><circle cx="53.6" cy="52.5" r="9.8" fill="#E7DAEA" stroke="#764E7F" stroke-miterlimit="10" stroke-width="3"/><line x1="28.7" x2="28.7" y1="34.2" y2="39.2" fill="#764E7F" stroke="#E7DAEA" stroke-linecap="round" stroke-linejoin="round" stroke-miterlimit="10" stroke-width="4"/><line x1="28.7" x2="28.7" y1="65.2" y2="71.2" fill="#764E7F" stroke="#E7DAEA" stroke-linecap="round" stroke-linejoin="round" stroke-miterlimit="10" stroke-width="4"/></g></switch></svg>