<svg xmlns="http://www.w3.org/2000/svg" xmlns:xlink="http://www.w3.org/1999/xlink" id="Layer_1" x="0" y="0" enable-background="new 0 0 105 105" version="1.1" viewBox="0 0 105 105" xml:space="preserve"><switch><g><path fill="#764E7F" d="M17.9,105h69c9.9,0,18-8.1,18-18V18c0-9.9-8.1-18-18-18h-69C8,0-0.1,8.1-0.1,18v69 C-0.1,96.9,8,105,17.9,105z"/><path fill="#E7DAEA" d="M73.8,82.1H32.9c-2.8,0-5-2.3-5-5v-34c0-2.8,2.3-5,5-5h40.9c2.8,0,5,2.3,5,5v34 C78.8,79.9,76.6,82.1,73.8,82.1z"/><path fill="none" stroke="#E7DAEA" stroke-linecap="round" stroke-linejoin="bevel" stroke-miterlimit="10" stroke-width="3.5" d="M55.5,34c0,0,10.4-17.3,17.5-15.9S80.5,34,55.5,34"/><path fill="none" stroke="#E7DAEA" stroke-linecap="round" stroke-linejoin="bevel" stroke-miterlimit="10" stroke-width="3.5" d="M50.7,34c0,0-10.4-17.3-17.5-15.9S25.7,34,50.7,34"/><line x1="26" x2="82" y1="59.5" y2="59.5" fill="none" stroke="#764E7F" stroke-miterlimit="10" stroke-width="3"/><line x1="53.5" x2="53.5" y1="38" y2="87" fill="none" stroke="#764E7F" stroke-miterlimit="10" stroke-width="3"/></g></switch></svg>