<svg xmlns="http://www.w3.org/2000/svg" xmlns:xlink="http://www.w3.org/1999/xlink" id="Layer_1" x="0" y="0" enable-background="new 0 0 105 105" version="1.1" viewBox="0 0 105 105" xml:space="preserve"><switch><g><path fill="#764E7F" d="M17.9,105h69c9.9,0,18-8.1,18-18V18c0-9.9-8.1-18-18-18h-69C8,0-0.1,8.1-0.1,18v69 C-0.1,96.9,8,105,17.9,105z"/><path fill="#E7DAEA" d="M49.1,45c0,0,23.1,2.2,24.9,2.5c1.8,0.3,0.4,16.5-0.9,18.8c-0.6,1-4.9,10.1-6.4,10.1c-3.8,0-20.9,0-20.9,0 L28.7,49.3c0,0,1.2-3.1,4.7-1.3c2,1,6.9,5.6,9.4,7.8c1.5,1.3,2.4,0.3,2.4,0.3L49.1,45z"/><path fill="#E7DAEA" d="M51.5,48.8l0.4-3.9c0,0,2.1-2.5,4.1-2.2c2,0.3,18,4.8,18,4.8l-1.9,6.8l-13.6-2.6L51.5,48.8z"/><rect width="32.3" height="10.1" x="40.7" y="79.6" fill="#E7DAEA"/><g><defs><path id="SVGID_1_" d="M50.5,53.6l1.4-8.7c0,0,2.1-2.5,4.1-2.2c2,0.3,18,4.8,18,4.8l-1.9,6.8l-13.6-2.6L50.5,53.6"/></defs><clipPath id="SVGID_2_"><use overflow="visible" xlink:href="#SVGID_1_"/></clipPath><polyline fill="#764E7F" points="53 42.8 53 51.9 54.9 51.9 54.9 42.8" clip-path="url(#SVGID_2_)"/><polyline fill="#764E7F" points="59.7 43 59.7 51.9 61.7 51.9 61.7 43" clip-path="url(#SVGID_2_)"/><polyline fill="#764E7F" points="66.5 45.1 66.5 52.4 68.5 52.4 68.5 45.1" clip-path="url(#SVGID_2_)"/></g><rect width="1.9" height="12.1" x="53" y="39.7" fill="#764E7F"/><rect width="1.9" height="12.1" x="59.8" y="39.7" fill="#764E7F"/><rect width="1.9" height="12.1" x="66.5" y="39.7" fill="#764E7F"/><path fill="#E7DAEA" d="M48.8,21.5h-0.4c-1.8,0-3.3,2.2-3.3,3.9v30.8c0,1.7,1.5,3.2,3.3,3.2h1.2c1.8,0,3.3-1.4,3.3-3.2V25.4 C53,23.2,51.5,21.6,48.8,21.5z"/><circle cx="49" cy="23.5" r="11.4" fill="none" stroke="#E7DAEA" stroke-miterlimit="10" stroke-width="2"/><circle cx="49" cy="23.5" r="6.4" fill="none" stroke="#E7DAEA" stroke-miterlimit="10" stroke-width="2"/></g></switch></svg>