<svg xmlns="http://www.w3.org/2000/svg" xmlns:svg="http://www.w3.org/2000/svg" style="enable-background:new 0 0 50 50" id="Layer_1" width="100%" height="100%" x="0" y="0" version="1.1" viewBox="0 0 50 50" xml:space="preserve"><metadata id="metadata21"/><path style="fill:none;stroke:#e1c7e2;stroke-miterlimit:10" id="path5" d="M7.3-84.9"/><path style="fill:none;stroke:#e1c7e2;stroke-miterlimit:10" id="path7" d="M7.5-84.9"/><g id="g9"><path style="fill:#764e7f" id="path11" d="M20,29.1c-1.5,0-2.7,1.2-2.7,2.7c0,1.5,1.2,2.6,2.7,2.6c1.5,0,2.7-1.2,2.7-2.6 C22.7,30.3,21.5,29.1,20,29.1z"/><path style="fill:#764e7f" id="path13" d="M17.4,21.2V25c2.5,0,4.8,1,6.6,2.7c1.8,1.8,2.7,4.1,2.7,6.6h3.8C30.6,27.1,24.6,21.2,17.4,21.2z"/><path style="fill:#764e7f" id="path15" d="M17.4,14.4v3.8c8.9,0,16.1,7.2,16.1,16.2h3.8C37.4,23.4,28.4,14.4,17.4,14.4z"/></g></svg>