<svg xmlns="http://www.w3.org/2000/svg" xmlns:xlink="http://www.w3.org/1999/xlink" id="Layer_1" x="0" y="0" enable-background="new 0 0 160.3 132.7" version="1.1" viewBox="0 0 160.3 132.7" xml:space="preserve"><switch><g><g><path fill="#764E7F" d="M109.1,41c-7-4.8-13.1-15-13.1-15H80.9H65.1c0,0-6.1,10.2-13.1,15c-7.6,5.2-21.3,7.5-21.3,7.5 s1.8,34.8,8.9,53.7c6.7,17.8,36.9,28.5,41.3,29.6c3.3-1.1,34.3-11.9,41-29.7c7.1-19,8.5-53.6,8.5-53.6S116.7,46.3,109.1,41z"/><g><path fill="#DDCCE2" d="M80.8,83.2c0-7.8,0-16.4,0-25.8V32H67.5c0,0-5.6,7.7-11.9,14.1 c-6.3,6.4-19.8,6.6-19.8,6.6s4.4,34.4,8.7,48.1c4.2,13.7,36.2,26.5,36.2,26.5v-1V89.7V83.2z" opacity=".5"/><path fill="#DDCCE2" d="M101.3,101c-9.4-2.1-17.5-7.8-20.5-11.3v36.6l0.4,0.7c32.2-14.3,35.1-23.9,35.1-23.9 S111.7,103.4,101.3,101z" opacity=".2"/></g><line x1="36.2" x2="27.6" y1="16.6" y2="3.3" fill="none" stroke="#764E7F" stroke-linecap="round" stroke-miterlimit="10" stroke-width="5"/><line x1="15.6" x2="2.9" y1="32.5" y2="23" fill="none" stroke="#764E7F" stroke-linecap="round" stroke-miterlimit="10" stroke-width="5"/><line x1="125.1" x2="134" y1="16.6" y2="3.5" fill="none" stroke="#764E7F" stroke-linecap="round" stroke-miterlimit="10" stroke-width="5"/><line x1="144.3" x2="157.2" y1="33.3" y2="24" fill="none" stroke="#764E7F" stroke-linecap="round" stroke-miterlimit="10" stroke-width="5"/></g></g></switch></svg>