<svg xmlns="http://www.w3.org/2000/svg" width="100%" height="100%" x="0" y="0" preserveAspectRatio="xMidYMin" version="1.1" viewBox="0 0 2150.8 991.5" xml:space="preserve"><g id="g3055" transform="translate(580,0)"><circle cx="990.8" cy="168" r="3.8" style="opacity:.6;fill:#fff"/><circle cx="239.6" cy="113" r="4.2" style="opacity:.6;fill:#fff"/><circle cx="1036" cy="659.4" r="4.2" style="opacity:.6;fill:#fff"/><circle cx="39.3" cy="984" r="4.2" style="opacity:.6;fill:#fff"/><circle cx="826.6" cy="236" r="2.1" style="opacity:.6;fill:#fff"/><circle cx="1071.8" cy="240.3" r="2.1" style="opacity:.6;fill:#fff"/><circle cx="621" cy="7.9" r="2.1" style="opacity:.6;fill:#fff"/><circle cx="7.7" cy="496" r="2.1" style="opacity:.6;fill:#fff"/><circle cx="724.7" cy="855" r="2.1" style="fill:#ccb8d3"/></g><g transform="translate(580,0)"><circle cx="239.6" cy="113" r="4.2" transform="matrix(1,0,0,-1,1072.519,991.857)" style="opacity:.6;fill:#fff"/><circle cx="39.3" cy="984" r="4.2" transform="matrix(1,0,0,-1,1072.519,991.857)" style="opacity:.6;fill:#fff"/><circle cx="7.7" cy="496" r="2.1" transform="matrix(1,0,0,-1,1072.519,991.857)" style="opacity:.6;fill:#fff"/></g><g transform="translate(580,0)"><circle cx="990.8" cy="168" r="3.8" transform="matrix(1,0,0,-1,-1091.481,991.857)" style="opacity:.6;fill:#fff"/><circle cx="1036" cy="659.4" r="4.2" transform="matrix(1,0,0,-1,-1091.481,991.857)" style="opacity:.6;fill:#fff"/><circle cx="826.6" cy="236" r="2.1" transform="matrix(1,0,0,-1,-1091.481,991.857)" style="opacity:.6;fill:#fff"/><circle cx="1071.8" cy="240.3" r="2.1" transform="matrix(1,0,0,-1,-1091.481,991.857)" style="opacity:.6;fill:#fff"/><circle cx="621" cy="7.9" r="2.1" transform="matrix(1,0,0,-1,-1091.481,991.857)" style="opacity:.6;fill:#fff"/><circle cx="724.7" cy="855" r="2.1" transform="matrix(1,0,0,-1,-1091.481,991.857)" style="fill:#ccb8d3"/></g></svg>