<svg xmlns="http://www.w3.org/2000/svg" xmlns:svg="http://www.w3.org/2000/svg" xmlns:xlink="http://www.w3.org/1999/xlink" style="enable-background:new 0 0 1490 226.6" id="Layer_1" width="100%" height="100%" x="0" y="0" version="1.1" viewBox="0 0 1490 226.6" xml:space="preserve"><metadata id="metadata111"/><defs id="defs109"><defs id="defs5"><rect id="SVGID_1_" width="1490" height="226.6" x="0" y="0"/></defs><clipPath id="SVGID_2_"><use id="use9" xlink:href="#SVGID_1_" style="overflow:visible"/></clipPath><radialGradient id="SVGID_3_" cx="483.06" cy="193.4" r="234.528" gradientTransform="matrix(1,0,0,0.9214,0,57.4135)" gradientUnits="userSpaceOnUse"><stop id="stop12" offset="0" style="stop-color:#ffffed"/><stop id="stop14" offset=".291" style="stop-color:#ffd5d8;stop-opacity:.709"/><stop id="stop16" offset=".772" style="stop-color:#ff94b8;stop-opacity:.2275"/><stop id="stop18" offset="1" style="stop-color:#ff7bac;stop-opacity:0"/></radialGradient><radialGradient id="SVGID_4_" cx="484.101" cy="152.912" r="154.459" gradientTransform="matrix(1,0,0,0.9214,0,57.4135)" gradientUnits="userSpaceOnUse"><stop id="stop83" offset="0" style="stop-color:#ffffed"/><stop id="stop85" offset=".291" style="stop-color:#ffd5d8;stop-opacity:.709"/><stop id="stop87" offset=".772" style="stop-color:#ff94b8;stop-opacity:.2275"/><stop id="stop89" offset="1" style="stop-color:#ff7bac;stop-opacity:0"/></radialGradient></defs><g id="g3141"><polygon style="fill:url(#SVGID_3_)" id="polygon20" points="248.2 20.6 718.8 20.6 718.8 450.6 247.3 450.6" clip-path="url(#SVGID_2_)"/><line style="fill:#fff" id="line80" x1="867.8" x2="1072.8" y1="159.6" y2="159.6" clip-path="url(#SVGID_2_)"/><polygon style="opacity:.4;fill:url(#SVGID_4_)" id="polygon91" points="325.3 60.7 643.5 60.7 643.5 336 324.7 336" clip-path="url(#SVGID_2_)"/><ellipse style="fill:#ffffe3" id="ellipse93" cx="485.6" cy="215.8" clip-path="url(#SVGID_2_)" rx="78.6" ry="60.6"/><polygon style="fill:#e1c7e2" id="polygon95" points="517 226.6 339.5 226.6 268.8 226.6 370.2 183" clip-path="url(#SVGID_2_)"/><polygon style="fill:#e1c7e2" id="polygon97" points="1490 226.6 1312.5 226.6 1241.8 226.6 1343.2 183" clip-path="url(#SVGID_2_)"/><polygon style="opacity:.6;fill:#e1c7e2" id="polygon99" points="1331 226.6 1214.6 226.6 1168.1 226.6 1234.7 198" clip-path="url(#SVGID_2_)"/><polygon style="opacity:.6;fill:#e1c7e2" id="polygon101" points="210 226.6 93.6 226.6 47.1 226.6 113.7 198" clip-path="url(#SVGID_2_)"/><polygon style="opacity:.4;fill:#e1c7e2" id="polygon103" points="861 226.6 744.6 226.6 698.1 226.6 764.7 198" clip-path="url(#SVGID_2_)"/><polygon style="fill:#f5dff7" id="polygon105" points="513.5 202.1 591.4 176.9 754.8 227 622.5 227.1 400.7 227.4 487.8 194.7" clip-path="url(#SVGID_2_)"/></g></svg>