<svg xmlns="http://www.w3.org/2000/svg" xmlns:xlink="http://www.w3.org/1999/xlink" id="Layer_1" x="0" y="0" enable-background="new 0 0 374.5 261.2" preserveAspectRatio="xMaxYMid" version="1.1" viewBox="0 0 374.5 261.2" xml:space="preserve"><switch><g><g><ellipse cx="290.8" cy="99.5" fill="#FFF" rx="4.1" ry="4.2"/><polygon fill="#303030" points="296.6 115 284.5 115 280.8 109.8 300.3 109.8"/><g><polygon fill="#664A3E" points="255.3 191 269.4 20.7 275.6 22.4 269.6 92.3 311.4 56.2 312.1 62.4 271.8 98.6 261 193.5"/><linearGradient id="SVGID_1_" x1="279.386" x2="301.822" y1="107.505" y2="85.069" gradientUnits="userSpaceOnUse"><stop offset="0" style="stop-color:#ebebec"/><stop offset=".536" style="stop-color:#f6d86f"/><stop offset="1" style="stop-color:#ffc907"/></linearGradient><rect width="17.2" height="27.7" x="282" y="82.5" fill="url(#SVGID_1_)"/><path fill="#FFF" d="M294.4,92c0,2.2-1.7,4-3.8,4c-2.1,0-3.8-1.8-3.8-4c0-2.2,1.7-4,3.8-4C292.7,88,294.4,89.8,294.4,92z"/><polygon fill="#303030" points="284.6 77.2 296.7 77.2 300.4 82.5 280.9 82.5"/><polyline fill="#664A3E" points="252.8 46.7 267.2 74.5 270.3 69.6 258.2 46.7"/><circle cx="291.1" cy="75.4" r="2.7" fill="#303030"/><path fill="#36C422" d="M311.1,56.7c0,0-0.3-13,11.2-14.8C322.3,41.9,319.4,59.1,311.1,56.7z"/><linearGradient id="SVGID_2_" x1="712.899" x2="727.151" y1="847.977" y2="847.977" gradientTransform="matrix(0.7586 0.6515 -0.6515 0.7586 323.566 -1046.2942)" gradientUnits="userSpaceOnUse"><stop offset="0" style="stop-color:#008a44"/><stop offset=".223" style="stop-color:#1b9543"/><stop offset=".698" style="stop-color:#5fb241"/><stop offset="1" style="stop-color:#8dc63f"/></linearGradient><path fill="url(#SVGID_2_)" d="M308.8,65.1c0,0,8.4-7.4,17.1,2C325.8,67.1,314.1,70.8,308.8,65.1z"/><linearGradient id="SVGID_3_" x1="278.455" x2="292.706" y1="243.419" y2="243.419" gradientTransform="matrix(0.987 0.161 -0.161 0.987 38.853 -243.4686)" gradientUnits="userSpaceOnUse"><stop offset="0" style="stop-color:#008a44"/><stop offset=".223" style="stop-color:#1b9543"/><stop offset=".698" style="stop-color:#5fb241"/><stop offset="1" style="stop-color:#8dc63f"/></linearGradient><path fill="url(#SVGID_3_)" d="M273.7,46.4c0,0,3.3-10.7,15.6-7.2C289.3,39.2,281.2,48.5,273.7,46.4z"/><path fill="#36C422" d="M275,23.8c0,0-0.4-18.4,13.5-20.9C288.5,2.8,285,27.1,275,23.8z"/><linearGradient id="SVGID_4_" x1="1794.869" x2="1809.122" y1="1076.372" y2="1076.372" gradientTransform="matrix(-5.390000e-002 0.9985 -0.9985 -5.390000e-002 1425.7533 -1701.9683)" gradientUnits="userSpaceOnUse"><stop offset="0" style="stop-color:#8dc63f"/><stop offset=".302" style="stop-color:#5fb241"/><stop offset=".777" style="stop-color:#1b9543"/><stop offset="1" style="stop-color:#008a44"/></linearGradient><path fill="url(#SVGID_4_)" d="M249.4,31.9c0,0,11,2.2,8.8,14.7C258.2,46.7,248.1,39.6,249.4,31.9z"/></g></g><g><g><linearGradient id="SVGID_5_" x1="182.498" x2="227.803" y1="131.03" y2="131.03" gradientUnits="userSpaceOnUse"><stop offset="0" style="stop-color:#b79865"/><stop offset=".053" style="stop-color:#ba9c6a"/><stop offset=".462" style="stop-color:#d1b990"/><stop offset=".792" style="stop-color:#dfcba7"/><stop offset="1" style="stop-color:#e4d2af"/></linearGradient><path fill="url(#SVGID_5_)" d="M222.6,134.3c-2.5,0-6-0.5-7.2-0.7c-0.8-0.1-1.5-0.3-1.9-0.4c-0.8,0-1.7,0-2.5,0 c-4.7,0.1-9.6,0.2-13.1,0c-6.9-0.3-6.9-1-6.9-1.3c0-0.2,0-0.8,5-1.2c0.4,0,0.6-0.1,0.8-0.1c-1.6-0.6-9.4-1.8-14.4-2.5l0.1-0.5 c15.1,2,15,2.8,15,3c0,0.3-0.4,0.4-1.4,0.5c-2.9,0.2-4.2,0.5-4.5,0.7c0.3,0.2,1.5,0.5,6.3,0.8c3.5,0.2,8.3,0.1,13,0 c0.4,0,0.9,0,1.3,0c-0.3-0.2-0.2-0.3-0.2-0.4c0-0.4,0.4-0.6,2.5-0.7c8.6-0.5,13.1,0,13.2,0l-0.1,0.5c0,0-4.6-0.5-13.1,0 c-1.3,0.1-1.8,0.2-2,0.3c0.2,0.1,0.5,0.2,0.9,0.3c7-0.1,11-0.1,11.5,0.6c0.1,0.1,0.1,0.3,0.1,0.4 C225.1,134.2,224,134.3,222.6,134.3z M215.7,133.1c2.4,0.4,5.6,0.8,7.7,0.7c0.9,0,1.2-0.2,1.3-0.2 C224.2,133.1,220.2,133.1,215.7,133.1z"/></g><path fill="#035C6B" d="M187.7,117.9h5.7c0,0-1.2-1.3-1.1-3.7l-2.4,0c0,0-0.4,2.4-2,2.8L187.7,117.9"/><path fill="#0E3A3F" d="M189.9,114.4c0,0,1.1,3.2,2.4,1.3c0,0-0.1-0.9,0-1.3H189.9z"/><rect width="15" height="1.3" x="183.1" y="117.9" fill="#CC9742" opacity=".6"/><g><g><linearGradient id="SVGID_6_" x1="-299.866" x2="-238.972" y1="107.625" y2="107.625" gradientTransform="matrix(-1 0 0 1 -84.0723 0)" gradientUnits="userSpaceOnUse"><stop offset="0" style="stop-color:#463d43"/><stop offset=".015" style="stop-color:#483c43"/><stop offset=".342" style="stop-color:#7c3048"/><stop offset=".627" style="stop-color:#a2274c"/><stop offset=".856" style="stop-color:#b9224e"/><stop offset="1" style="stop-color:#c1204f"/></linearGradient><polygon fill="url(#SVGID_6_)" points="215.8 126.9 180.1 127.4 154.9 92 203.6 87.8 209.1 92.3"/><linearGradient id="SVGID_7_" x1="131.264" x2="213.114" y1="79.079" y2="79.079" gradientUnits="userSpaceOnUse"><stop offset="0" style="stop-color:#e4d2af"/><stop offset=".208" style="stop-color:#dfcba7"/><stop offset=".538" style="stop-color:#d1b990"/><stop offset=".947" style="stop-color:#ba9c6a"/><stop offset="1" style="stop-color:#b79865"/></linearGradient><path fill="url(#SVGID_7_)" d="M213.1,95.6c0,0-3.4-6.9-8.8-17.5c-1.6-3.2-2.8-6.3-4.7-7.2c0,0-36.6-1.5-36.8-8.4l-31.5,26 c0,0,8.9,3.9,25,4.7c12.6,0.6,39.4-0.2,49.5-0.1c2.6,0,5,0,5,0S212.1,93.3,213.1,95.6z"/><linearGradient id="SVGID_8_" x1="117.667" x2="184.302" y1="109.946" y2="109.946" gradientUnits="userSpaceOnUse"><stop offset="0" style="stop-color:#b7997c"/><stop offset=".483" style="stop-color:#b79974"/><stop offset="1" style="stop-color:#b79865"/></linearGradient><path fill="url(#SVGID_8_)" d="M135,90c0,0-8.2,33.8-17.3,37.9l64.8,2l1.9-36l-18.5-0.5c0,0-13.3,0.2-18.1-0.4 C142.9,92.3,135,90,135,90z"/><linearGradient id="SVGID_9_" x1="208.961" x2="226.928" y1="110.512" y2="110.512" gradientUnits="userSpaceOnUse"><stop offset="0" style="stop-color:#e4d2af"/><stop offset=".208" style="stop-color:#dfcba7"/><stop offset=".538" style="stop-color:#d1b990"/><stop offset=".947" style="stop-color:#ba9c6a"/><stop offset="1" style="stop-color:#b79865"/></linearGradient><path fill="url(#SVGID_9_)" d="M211.1,92c0,0,10.1,38.8,15.8,37h-12.3L209,92.9L211.1,92z"/><linearGradient id="SVGID_10_" x1="159.653" x2="180.363" y1="111.143" y2="111.143" gradientUnits="userSpaceOnUse"><stop offset="0" style="stop-color:#e4d2af"/><stop offset=".208" style="stop-color:#dfcba7"/><stop offset=".538" style="stop-color:#d1b990"/><stop offset=".947" style="stop-color:#ba9c6a"/><stop offset="1" style="stop-color:#b79865"/></linearGradient><path fill="url(#SVGID_10_)" d="M180.4,92.6c0,0-11.1,27.1-20.7,27.8c0,0,8.9,8.3,18.7,9.2L180.4,92.6z"/><polygon fill="#664A3E" points="117.7 129.4 182.4 131.1 182.4 129.5 117.7 127.4" opacity=".4"/><linearGradient id="SVGID_11_" x1="693.528" x2="722.148" y1="181.476" y2="152.856" gradientTransform="matrix(0.9978 -6.700000e-002 6.330000e-002 0.9425 -542.5936 3.945)" gradientUnits="userSpaceOnUse"><stop offset="0" style="stop-color:#ffc907"/><stop offset=".014" style="stop-color:#feca0e"/><stop offset=".118" style="stop-color:#fad242"/><stop offset=".227" style="stop-color:#f6d86f"/><stop offset=".339" style="stop-color:#f3de96"/><stop offset=".454" style="stop-color:#f0e3b5"/><stop offset=".573" style="stop-color:#eee6cd"/><stop offset=".699" style="stop-color:#ece9df"/><stop offset=".835" style="stop-color:#ebebe9"/><stop offset="1" style="stop-color:#ebebec"/></linearGradient><polygon fill="url(#SVGID_11_)" points="179.2 93.8 168 134.4 169.3 134.3 180.7 93.9"/><rect width="12.3" height="1.8" x="214.6" y="129" fill="#664A3E" opacity=".4"/><linearGradient id="SVGID_12_" x1="-322.211" x2="-290.604" y1="129.457" y2="97.849" gradientTransform="matrix(-1 0 0 1 -84.0723 0)" gradientUnits="userSpaceOnUse"><stop offset="0" style="stop-color:#ffc907"/><stop offset=".014" style="stop-color:#feca0e"/><stop offset=".118" style="stop-color:#fad242"/><stop offset=".227" style="stop-color:#f6d86f"/><stop offset=".339" style="stop-color:#f3de96"/><stop offset=".454" style="stop-color:#f0e3b5"/><stop offset=".573" style="stop-color:#eee6cd"/><stop offset=".699" style="stop-color:#ece9df"/><stop offset=".835" style="stop-color:#ebebe9"/><stop offset="1" style="stop-color:#ebebec"/></linearGradient><polygon fill="url(#SVGID_12_)" points="212.6 93.2 233.5 134.1 232 134.1 211.4 93"/></g><path fill="#FFF7D2" d="M177.3,72.5c-13.4-0.5-17.1-3.3-17.1-3.3l-22.9,17.5c2,1.3,8,3.5,26.1,4.3c10,0.2,21,0.2,21,0.2 l14.3-21.7C198.8,69.7,193,73.2,177.3,72.5z"/><path fill="#40FBFF" d="M199,93.2c0,0,5.9,10.4,9.8-0.1l-0.4,0.1c0,0-3.1,8.3-9.2-0.1L199,93.2z"/><ellipse cx="208" cy="95.9" fill="#FFFDEB" rx=".4" ry="1.2"/><ellipse cx="205" cy="98.2" fill="#FFFDEB" rx=".4" ry="1.2"/><path fill="#40FBFF" d="M191.3,93.1c0,0,5.7,10.9,9.7,0.1h-0.2c0,0-3.1,9-9.1,0L191.3,93.1z"/><ellipse cx="201.8" cy="96.4" fill="#FFFDEB" rx=".4" ry="1.2"/><ellipse cx="199.1" cy="97.3" fill="#FFFDEB" rx=".4" ry="1.2"/><ellipse cx="195.7" cy="98.1" fill="#FFFDEB" rx=".4" ry="1.2"/><path fill="#40FBFF" d="M184.7,93.2c0,0,5.8,10.6,9.7,0.1h-0.2c0,0-3.3,8.8-9.2-0.2L184.7,93.2z"/><ellipse cx="194.5" cy="94.3" fill="#FFFDEB" rx=".4" ry="1.2"/><ellipse cx="191.5" cy="97.7" fill="#FFFDEB" rx=".4" ry="1.2"/><ellipse cx="188.4" cy="98.9" fill="#FFFDEB" rx=".4" ry="1.2"/><ellipse cx="186" cy="96.7" fill="#FFFDEB" rx=".4" ry="1.2"/><polygon fill="#035C6B" points="197.1 114.3 185 114.3 184.1 107.1 195.6 107.1"/><linearGradient id="SVGID_13_" x1="185.354" x2="195.949" y1="110.694" y2="110.694" gradientUnits="userSpaceOnUse"><stop offset=".21" style="stop-color:#5ab5d9"/><stop offset=".233" style="stop-color:#63b5d8"/><stop offset=".329" style="stop-color:#86b6d2"/><stop offset=".432" style="stop-color:#a2b7ce"/><stop offset=".542" style="stop-color:#b8b8ca"/><stop offset=".662" style="stop-color:#c7b9c8"/><stop offset=".801" style="stop-color:#d0b9c6"/><stop offset="1" style="stop-color:#d3b9c6"/></linearGradient><polygon fill="url(#SVGID_13_)" points="195.9 113.7 186.1 113.7 185.4 107.7 194.6 107.7"/><path fill="#664A3E" d="M176.2,93.2c-27.4,0.3-35.8-1.6-41.1-3l-2.6,9l51.5-2.1l0.4-3.2L176.2,93.2z" opacity=".4"/><line x1="165.7" x2="141.8" y1="70.5" y2="89" fill="none" stroke="#CEB79B" stroke-miterlimit="10" stroke-width="2"/><line x1="173" x2="150.4" y1="70.9" y2="90.9" fill="none" stroke="#CEB79B" stroke-miterlimit="10" stroke-width="2"/><line x1="194.7" x2="173.1" y1="70.9" y2="92" fill="none" stroke="#CEB79B" stroke-miterlimit="10" stroke-width="2"/><line x1="186.9" x2="165.3" y1="70.7" y2="91.8" fill="none" stroke="#CEB79B" stroke-miterlimit="10" stroke-width="2"/><line x1="179.4" x2="157.9" y1="70.6" y2="91.7" fill="none" stroke="#CEB79B" stroke-miterlimit="10" stroke-width="2"/><path fill="#664A3E" d="M149.6,98.7c0,0-13.9,17.8-22.9,17.8c-1.3,0,11.3-11.5,10.2-17.3L149.6,98.7z" opacity=".2"/><ellipse cx="200.7" cy="81.8" fill="#664A3E" opacity=".35" rx="6.4" ry="9" transform="matrix(0.7887 -0.6148 0.6148 0.7887 -7.8756 140.6816)"/><ellipse cx="200.4" cy="70.7" fill="#FFF7D2" rx="8.8" ry="17" transform="matrix(-0.7071 0.7071 -0.7071 -0.7071 392.1424 -20.955)"/><linearGradient id="SVGID_14_" x1="10.639" x2="21.61" y1="-70.938" y2="-82.032" gradientTransform="matrix(0.7412 0.6713 -0.6012 0.6639 142.9868 109.8525)" gradientUnits="userSpaceOnUse"><stop offset="0" style="stop-color:#ab8541"/><stop offset=".265" style="stop-color:#bfa365"/><stop offset=".582" style="stop-color:#d4c18b"/><stop offset=".839" style="stop-color:#e1d4a2"/><stop offset="1" style="stop-color:#e6dbaa"/></linearGradient><path fill="url(#SVGID_14_)" d="M207.9,76.2c-1.9,2.1-6.6,1.1-10.5-2.4c-3.8-3.5-5.4-8-3.5-10.2 c1.9-2.1,6.6-1.1,10.5,2.4C208.3,69.5,209.8,74.1,207.9,76.2z" opacity=".3"/><polygon fill="#FFF7D2" points="189 59.9 190 60.7 213.7 53.2 193.9 75.6 196 76.6 214.4 53.8 211.2 80.2 212.5 80.3 215.2 51.9"/></g></g><g><path fill="#D8D082" d="M373.5,229.4c-9.2-23.7-37.7-106.6-48.9-132.6l-60.9,72l-50.5-11.3c0,0-22.2,69.6-44,76.4 c-1.2,0.4-2.4,0.6-3.6,0.5l163.7-2.7L373.5,229.4z"/><path fill="#FFF4B6" d="M307.2,162l-22-16.2l39.1-48.9c0,0,7.8,19.5,18.9,50.9C343.3,147.8,303.9,157.3,307.2,162z"/><path fill="#B2345E" d="M303.8,159.3c0,0-1.9,32.6,17.7,37.3l0.3-0.9c0,0-17.2-3.4-16.9-34.7L303.8,159.3z"/><linearGradient id="SVGID_15_" x1="211.814" x2="274.957" y1="174.345" y2="174.345" gradientUnits="userSpaceOnUse"><stop offset="0" style="stop-color:#807b54"/><stop offset=".308" style="stop-color:#887d50"/><stop offset=".795" style="stop-color:#9f8246"/><stop offset="1" style="stop-color:#ab8541"/></linearGradient><polygon fill="url(#SVGID_15_)" points="275 180.5 213.2 184.8 211.8 163.9"/><linearGradient id="SVGID_16_" x1="213.248" x2="274.957" y1="184.73" y2="184.73" gradientUnits="userSpaceOnUse"><stop offset="0" style="stop-color:#ffc907"/><stop offset=".014" style="stop-color:#feca0e"/><stop offset=".118" style="stop-color:#fad242"/><stop offset=".227" style="stop-color:#f6d86f"/><stop offset=".339" style="stop-color:#f3de96"/><stop offset=".454" style="stop-color:#f0e3b5"/><stop offset=".573" style="stop-color:#eee6cd"/><stop offset=".699" style="stop-color:#ece9df"/><stop offset=".835" style="stop-color:#ebebe9"/><stop offset="1" style="stop-color:#ebebec"/></linearGradient><path fill="url(#SVGID_16_)" d="M213.2,184.8c0,0,38.2,11.7,61.7-4.3L213.2,184.8z"/><linearGradient id="SVGID_17_" x1="213.248" x2="266.777" y1="192.319" y2="192.319" gradientUnits="userSpaceOnUse"><stop offset="0" style="stop-color:#ab8541"/><stop offset=".205" style="stop-color:#9f8246"/><stop offset=".692" style="stop-color:#887d50"/><stop offset="1" style="stop-color:#807b54"/></linearGradient><path fill="url(#SVGID_17_)" d="M213.2,184.8c0,0,11.8,10.5,12.6,15l40.9-14.6C266.8,185.2,237,195.2,213.2,184.8z" opacity=".4"/><polygon fill="#B2345E" points="290 141.1 307.2 152.7 308.1 151.5 291 140"/><path fill="#B2345E" d="M339.8,137.9c0,0-15.8,2.7-34.2,13.2l1.6,1.6c0,0,15.2-10.8,33.2-13.1L339.8,137.9z"/><path fill="#B2345E" d="M301.4,148.4c0,0,10.4-6.2,13-6.8l-0.6-0.7c0,0-4.2,1.8-13.3,6.9L301.4,148.4z"/><path fill="#B2345E" d="M311.7,149c0,0-5.8-6.2-8.1-6.8l1.1-0.7c0,0,2.9,1.8,8.3,6.9L311.7,149z"/><path fill="#B2345E" d="M313.4,142c0,0-4-4.4-5.5-4.8l0.8-0.5c0,0,2,1.3,5.6,4.9L313.4,142z"/><path fill="#B2345E" d="M304.5,142.6c0,0,4.6-3.8,6.2-4.3l-0.8-0.6c0,0-2.6,0.9-6.2,4.4L304.5,142.6z"/><path fill="#B2345E" d="M311.6,157.8c0,0-6,55.3,1.1,66.9l0.6-1.3c0,0-6.7-29.5,0.4-66.9L311.6,157.8z"/><polygon fill="#8E885B" points="279.1 260.1 271.6 207.5 269.2 207.5 271.6 224.2 266.2 221.5 265.2 223.8 270.9 226.5 277 261.2"/><linearGradient id="SVGID_18_" x1="319.682" x2="341.194" y1="137.188" y2="115.676" gradientUnits="userSpaceOnUse"><stop offset="0" style="stop-color:#2e2d33"/><stop offset=".158" style="stop-color:#494136"/><stop offset=".496" style="stop-color:#8d723e"/><stop offset=".591" style="stop-color:#a18140"/><stop offset=".641" style="stop-color:#987b3f"/><stop offset=".875" style="stop-color:#74603b"/><stop offset="1" style="stop-color:#66563a"/></linearGradient><polygon fill="url(#SVGID_18_)" points="343.3 147.7 324.1 98.6 333 150.5" opacity=".35"/><polygon fill="#303030" points="262.5 168.5 228.8 244.2 226.2 244.2 259.7 167.9"/><path fill="#C9C09B" d="M230.5,235.6c0-0.5-1.3-0.9-2.8-0.9c-1.6,0-2.8,0.4-2.8,0.9c0,0.4,0.8,0.7,1.9,0.8v6.9h1.9v-6.9 C229.7,236.3,230.5,236,230.5,235.6z"/><rect width="5" height="2.3" x="271.9" y="236.7" fill="#303030"/><rect width="5" height="2.3" x="272.8" y="241.2" fill="#303030" transform="matrix(0.9953 -9.643597e-002 9.643597e-002 0.9953 -22.088 27.6769)"/><path fill="#36C422" d="M273.2,221.7c0,0-0.3-11.3,9.8-12.9C283,208.8,280.4,223.7,273.2,221.7z"/><linearGradient id="SVGID_19_" x1="307.601" x2="320.009" y1="420.215" y2="420.215" gradientTransform="matrix(0.987 0.161 -0.161 0.987 38.853 -243.4686)" gradientUnits="userSpaceOnUse"><stop offset="0" style="stop-color:#008a44"/><stop offset=".223" style="stop-color:#1b9543"/><stop offset=".698" style="stop-color:#5fb241"/><stop offset="1" style="stop-color:#8dc63f"/></linearGradient><path fill="url(#SVGID_19_)" d="M274.1,225c0,0,2.9-9.4,13.6-6.2C287.7,218.7,280.7,226.8,274.1,225z"/><linearGradient id="SVGID_20_" x1="331.242" x2="373.549" y1="188.589" y2="188.589" gradientUnits="userSpaceOnUse"><stop offset="0" style="stop-color:#815b6a"/><stop offset=".239" style="stop-color:#9b715c"/><stop offset=".505" style="stop-color:#b18450"/><stop offset=".762" style="stop-color:#be8f49"/><stop offset="1" style="stop-color:#c29347"/></linearGradient><path fill="url(#SVGID_20_)" d="M342.8,147.7c0,0,1.3,60-5.6,62.9c0,0,34.9,12.7,36.3,18.8 c0,0-35.7-20.2-42.3-17.9c0,0,13.6-46.6,11-63.3" opacity=".8"/><linearGradient id="SVGID_21_" x1="285.29" x2="342.962" y1="156.986" y2="156.986" gradientUnits="userSpaceOnUse"><stop offset="0" style="stop-color:#e1b6a9"/><stop offset=".121" style="stop-color:#ca9e9a"/><stop offset=".417" style="stop-color:#976777"/><stop offset=".673" style="stop-color:#723f5e"/><stop offset=".876" style="stop-color:#5b274f"/><stop offset="1" style="stop-color:#531e49"/></linearGradient><path fill="url(#SVGID_21_)" d="M285.3,145.8c0,0,24.4,21.8,25.5,22.4c0,0,7.3-12.3,32.2-19.7l-0.1-0.7 c0,0-38.1,9.5-35.7,14.2L285.3,145.8z" opacity=".5"/><linearGradient id="SVGID_22_" x1="258.756" x2="270.878" y1="218.685" y2="206.563" gradientUnits="userSpaceOnUse"><stop offset="0" style="stop-color:#ffc907"/><stop offset=".156" style="stop-color:#f9d34b"/><stop offset=".317" style="stop-color:#f4dd8b"/><stop offset=".454" style="stop-color:#efe4ba"/><stop offset=".558" style="stop-color:#ede8d7"/><stop offset=".618" style="stop-color:#eceae2"/><stop offset="1" style="stop-color:#f3e145"/></linearGradient><rect width="9.3" height="14.9" x="260.2" y="205.2" fill="url(#SVGID_22_)"/><ellipse cx="266.1" cy="213.6" fill="#FFF" rx="2.2" ry="2.3"/><ellipse cx="264.4" cy="210.1" fill="#FFF" rx="2.1" ry="2.2"/><polygon fill="#303030" points="268.1 222.8 261.5 222.8 259.5 219.9 270 219.9"/><polygon fill="#303030" points="261.6 202.3 268.1 202.3 270.1 205.2 259.6 205.2"/></g><g><path fill="#8E885B" d="M64.4,185.2"/><linearGradient id="SVGID_23_" x1="19.988" x2="132.002" y1="156.05" y2="156.05" gradientUnits="userSpaceOnUse"><stop offset="0" style="stop-color:#006d6b"/><stop offset=".069" style="stop-color:#086867"/><stop offset=".704" style="stop-color:#4f3841"/><stop offset="1" style="stop-color:#6b2532"/></linearGradient><polygon fill="url(#SVGID_23_)" points="20 185.2 103.7 185.4 132 134.6 37.3 126.7 26.4 131.9"/><path fill="#D8D082" d="M133.4,133.4c0,0,13.5,46.4,26.4,52.4l-92.3,3v-53.9L133.4,133.4z"/><path fill="#D8D082" d="M26.1,134.8c0,0-13.8,55.2-22,52.7h17.5L26.1,134.8z"/><linearGradient id="SVGID_24_" x1="-6.612" x2="34.96" y1="184.106" y2="142.534" gradientUnits="userSpaceOnUse"><stop offset="0" style="stop-color:#ffc907"/><stop offset=".014" style="stop-color:#feca0e"/><stop offset=".118" style="stop-color:#fad242"/><stop offset=".227" style="stop-color:#f6d86f"/><stop offset=".339" style="stop-color:#f3de96"/><stop offset=".454" style="stop-color:#f0e3b5"/><stop offset=".573" style="stop-color:#eee6cd"/><stop offset=".699" style="stop-color:#ece9df"/><stop offset=".835" style="stop-color:#ebebe9"/><stop offset="1" style="stop-color:#ebebec"/></linearGradient><polygon fill="url(#SVGID_24_)" points="24.5 133.7 2.3 193 3.7 193 26.1 133.7"/><linearGradient id="SVGID_25_" x1="41.958" x2="53.157" y1="149.147" y2="137.947" gradientUnits="userSpaceOnUse"><stop offset="0" style="stop-color:#3a2a0b"/><stop offset=".113" style="stop-color:#453616"/><stop offset=".496" style="stop-color:#655c38"/><stop offset=".805" style="stop-color:#79734c"/><stop offset="1" style="stop-color:#807b54"/></linearGradient><path fill="url(#SVGID_25_)" d="M27.3,133.7c0,0,19.9,26.7,40.4,19.9l-0.5-1.7c0,0-14.2,9-37.9-18.2H27.3z"/><path fill="#D8D082" d="M24.8,133.7c0,0,7.6-31.4,34.1-31.4c0,0,41.7,8.1,41.7,0c0,0,42.3,21.6,32.8,31.1L24.8,133.7z"/><linearGradient id="SVGID_26_" x1="67.546" x2="94.222" y1="161.805" y2="161.805" gradientUnits="userSpaceOnUse"><stop offset="0" style="stop-color:#aa6d3c"/><stop offset=".053" style="stop-color:#ac7241"/><stop offset=".462" style="stop-color:#b89862"/><stop offset=".792" style="stop-color:#bfaf76"/><stop offset="1" style="stop-color:#c2b77e"/></linearGradient><path fill="url(#SVGID_26_)" d="M67.5,136.5c0,0,1-4.9,4.2,2.2c5,10.9,14.1,35.6,22.4,36.3 c0,0-12.7,12.4-26.7,13.7V136.5z" opacity=".7"/><linearGradient id="SVGID_27_" x1="41.812" x2="73.587" y1="118.142" y2="118.142" gradientUnits="userSpaceOnUse"><stop offset="0" style="stop-color:#ab8541"/><stop offset=".382" style="stop-color:#b69d5f"/><stop offset=".761" style="stop-color:#bfb076"/><stop offset="1" style="stop-color:#c2b77e"/></linearGradient><path fill="url(#SVGID_27_)" d="M41.8,107.6c0,0,32.9,22.5,31.7,25.1c0,0,0.7-25.5-24.1-29.1L41.8,107.6z" opacity=".7"/><linearGradient id="SVGID_28_" x1="80.499" x2="99.678" y1="115.662" y2="115.662" gradientUnits="userSpaceOnUse"><stop offset="0" style="stop-color:#ab8541"/><stop offset=".382" style="stop-color:#b69d5f"/><stop offset=".761" style="stop-color:#bfb076"/><stop offset="1" style="stop-color:#c2b77e"/></linearGradient><path fill="url(#SVGID_28_)" d="M80.5,104.9c0,0,13.9,6.3,19.2,21.5L80.5,104.9z" opacity=".7"/><linearGradient id="SVGID_29_" x1="25.114" x2="63.471" y1="140.049" y2="140.049" gradientUnits="userSpaceOnUse"><stop offset="0" style="stop-color:#3a2a0b"/><stop offset=".113" style="stop-color:#453616"/><stop offset=".496" style="stop-color:#655c38"/><stop offset=".805" style="stop-color:#79734c"/><stop offset="1" style="stop-color:#807b54"/></linearGradient><path fill="url(#SVGID_29_)" d="M25.1,146.7c0,0,28.4-6.9,38.4-12.7l-1.5-0.7c0,0-13.8,7-36.7,11.6L25.1,146.7z"/><ellipse cx="53.5" cy="140.1" fill="#FFFDEB" rx=".6" ry="1.8"/><ellipse cx="44.2" cy="142.9" fill="#FFFDEB" rx=".6" ry="1.8"/><ellipse cx="36.8" cy="141.9" fill="#FFFDEB" rx=".6" ry="1.8"/><ellipse cx="61.3" cy="136.4" fill="#FFFDEB" rx=".6" ry="1.8"/><ellipse cx="34.1" cy="136.4" fill="#FFFDEB" rx=".6" ry="1.8"/><ellipse cx="27.9" cy="144.3" fill="#FFFDEB" rx=".6" ry="1.8"/><rect width="14.2" height="24.3" x="53.4" y="159.7" fill="#332016" opacity=".6"/><linearGradient id="SVGID_30_" x1="50.308" x2="90.163" y1="194.621" y2="154.766" gradientTransform="matrix(0.9978 -6.700000e-002 6.700000e-002 0.9978 -20.5281 -5.6921)" gradientUnits="userSpaceOnUse"><stop offset="0" style="stop-color:#ffc907"/><stop offset=".014" style="stop-color:#feca0e"/><stop offset=".118" style="stop-color:#fad242"/><stop offset=".227" style="stop-color:#f6d86f"/><stop offset=".339" style="stop-color:#f3de96"/><stop offset=".454" style="stop-color:#f0e3b5"/><stop offset=".573" style="stop-color:#eee6cd"/><stop offset=".699" style="stop-color:#ece9df"/><stop offset=".835" style="stop-color:#ebebe9"/><stop offset="1" style="stop-color:#ebebec"/></linearGradient><polygon fill="url(#SVGID_30_)" points="67.5 133.7 53.2 194.3 54.9 194.2 69.5 133.7"/><rect width="12.1" height="6.1" x="40.8" y="178" fill="#332016" opacity=".3"/><linearGradient id="SVGID_31_" x1="115.512" x2="131.473" y1="179.222" y2="179.222" gradientUnits="userSpaceOnUse"><stop offset="0" style="stop-color:#008a44"/><stop offset=".223" style="stop-color:#1b9543"/><stop offset=".698" style="stop-color:#5fb241"/><stop offset="1" style="stop-color:#8dc63f"/></linearGradient><path fill="url(#SVGID_31_)" d="M122.3,189c0,0-1-8.2-6.8-19.6c0,0,8,13.4,8.3,18.4c0,0,1.7-13,7.6-12.5c0,0-4.9,1.4-6.2,13.4 L122.3,189z"/><linearGradient id="SVGID_32_" x1="42.474" x2="48.545" y1="122.319" y2="122.319" gradientUnits="userSpaceOnUse"><stop offset="0" style="stop-color:#6b2532"/><stop offset=".043" style="stop-color:#56333d"/><stop offset=".112" style="stop-color:#3b454b"/><stop offset=".191" style="stop-color:#255457"/><stop offset=".283" style="stop-color:#145f60"/><stop offset=".397" style="stop-color:#096766"/><stop offset=".556" style="stop-color:#026c6a"/><stop offset="1" style="stop-color:#006d6b"/></linearGradient><polygon fill="url(#SVGID_32_)" points="42.5 134.5 48.5 110.2 48.5 134.4"/><polygon fill="#8E885B" points="17.8 193.3 13.3 161.4 11.9 161.4 13.3 171.5 10 169.8 9.4 171.3 12.9 172.9 16.6 193.9"/><path fill="#36C422" d="M14.9,180.4c0,0-0.2-6.9,5.9-7.8C20.8,172.6,19.3,181.6,14.9,180.4z"/><linearGradient id="SVGID_33_" x1="44.954" x2="52.484" y1="420.061" y2="420.061" gradientTransform="matrix(0.987 0.161 -0.161 0.987 38.853 -243.4686)" gradientUnits="userSpaceOnUse"><stop offset="0" style="stop-color:#008a44"/><stop offset=".223" style="stop-color:#1b9543"/><stop offset=".698" style="stop-color:#5fb241"/><stop offset="1" style="stop-color:#8dc63f"/></linearGradient><path fill="url(#SVGID_33_)" d="M15.2,180.9c0,0,1.8-5.7,8.2-3.8C23.4,177.1,19.2,182,15.2,180.9z"/><path fill="#36C422" d="M3.4,163.5c0,0-0.2,6.9,5.9,7.8C9.4,171.3,7.8,162.2,3.4,163.5z"/><linearGradient id="SVGID_34_" x1="100.431" x2="127.792" y1="139.362" y2="139.362" gradientUnits="userSpaceOnUse"><stop offset="0" style="stop-color:#664873"/><stop offset=".142" style="stop-color:#7d5b68"/><stop offset=".367" style="stop-color:#9b735a"/><stop offset=".589" style="stop-color:#b1854f"/><stop offset=".802" style="stop-color:#be8f49"/><stop offset="1" style="stop-color:#c29347"/></linearGradient><polygon fill="url(#SVGID_34_)" points="120.1 125.7 127.8 156.9 107.9 153 100.4 121.8" opacity=".8"/><polygon fill="#FFF" points="120.5 121.7 134.1 150.8 113.8 150.8 100.4 121.7"/><polygon fill="#FFF" points="93.9 134 97 143.9 139.7 143.9 139.7 142 98.2 142 95.5 134.2"/><linearGradient id="SVGID_35_" x1="104.153" x2="129.369" y1="135.027" y2="135.027" gradientUnits="userSpaceOnUse"><stop offset="0" style="stop-color:#ab8541"/><stop offset=".382" style="stop-color:#b69d5f"/><stop offset=".761" style="stop-color:#bfb076"/><stop offset="1" style="stop-color:#c2b77e"/></linearGradient><polygon fill="url(#SVGID_35_)" points="119.2 124.1 129.4 145.9 114.2 145.9 104.2 124.1" opacity=".7"/><linearGradient id="SVGID_36_" x1="117.647" x2="120.861" y1="148.599" y2="148.599" gradientUnits="userSpaceOnUse"><stop offset=".21" style="stop-color:#5ab5d9"/><stop offset=".233" style="stop-color:#63b5d8"/><stop offset=".329" style="stop-color:#86b6d2"/><stop offset=".432" style="stop-color:#a2b7ce"/><stop offset=".542" style="stop-color:#b8b8ca"/><stop offset=".662" style="stop-color:#c7b9c8"/><stop offset=".801" style="stop-color:#d0b9c6"/><stop offset="1" style="stop-color:#d3b9c6"/></linearGradient><path fill="url(#SVGID_36_)" d="M119.1,150.8l1.7,0c-0.1-0.4-0.3-0.8-0.5-1.2c-0.8-1.8-1.9-3.3-2.5-3.3c-0.5,0-0.2,1.5,0.6,3.3 C118.7,150.1,118.9,150.5,119.1,150.8z"/><linearGradient id="SVGID_37_" x1="122.119" x2="125.333" y1="148.508" y2="148.508" gradientUnits="userSpaceOnUse"><stop offset=".21" style="stop-color:#5ab5d9"/><stop offset=".233" style="stop-color:#63b5d8"/><stop offset=".329" style="stop-color:#86b6d2"/><stop offset=".432" style="stop-color:#a2b7ce"/><stop offset=".542" style="stop-color:#b8b8ca"/><stop offset=".662" style="stop-color:#c7b9c8"/><stop offset=".801" style="stop-color:#d0b9c6"/><stop offset="1" style="stop-color:#d3b9c6"/></linearGradient><path fill="url(#SVGID_37_)" d="M123.6,150.7l1.7,0c-0.1-0.4-0.3-0.8-0.5-1.2c-0.8-1.8-1.9-3.3-2.5-3.3c-0.5,0-0.2,1.5,0.6,3.3 C123.2,150,123.4,150.4,123.6,150.7z"/><linearGradient id="SVGID_38_" x1="126.772" x2="129.986" y1="148.508" y2="148.508" gradientUnits="userSpaceOnUse"><stop offset=".21" style="stop-color:#5ab5d9"/><stop offset=".233" style="stop-color:#63b5d8"/><stop offset=".329" style="stop-color:#86b6d2"/><stop offset=".432" style="stop-color:#a2b7ce"/><stop offset=".542" style="stop-color:#b8b8ca"/><stop offset=".662" style="stop-color:#c7b9c8"/><stop offset=".801" style="stop-color:#d0b9c6"/><stop offset="1" style="stop-color:#d3b9c6"/></linearGradient><path fill="url(#SVGID_38_)" d="M128.3,150.7l1.7,0c-0.1-0.4-0.3-0.8-0.5-1.2c-0.8-1.8-1.9-3.3-2.5-3.3c-0.5,0-0.2,1.5,0.6,3.3 C127.8,150,128,150.4,128.3,150.7z"/><g><linearGradient id="SVGID_39_" x1="130.979" x2="137.521" y1="144.785" y2="144.785" gradientUnits="userSpaceOnUse"><stop offset="0" style="stop-color:#664873"/><stop offset=".142" style="stop-color:#7d5b68"/><stop offset=".367" style="stop-color:#9b735a"/><stop offset=".589" style="stop-color:#b1854f"/><stop offset=".802" style="stop-color:#be8f49"/><stop offset="1" style="stop-color:#c29347"/></linearGradient><polygon fill="url(#SVGID_39_)" points="131.8 145.7 137.5 145.7 136.9 143.9 131 143.9" opacity=".8"/><linearGradient id="SVGID_40_" x1="93.933" x2="111.528" y1="140.004" y2="140.004" gradientUnits="userSpaceOnUse"><stop offset="0" style="stop-color:#664873"/><stop offset=".142" style="stop-color:#7d5b68"/><stop offset=".367" style="stop-color:#9b735a"/><stop offset=".589" style="stop-color:#b1854f"/><stop offset=".802" style="stop-color:#be8f49"/><stop offset="1" style="stop-color:#c29347"/></linearGradient><polygon fill="url(#SVGID_40_)" points="110.7 144 97 144 93.9 134.3 96.5 145.7 111.5 145.7" opacity=".8"/></g></g></g></switch></svg>