<svg xmlns="http://www.w3.org/2000/svg" xmlns:xlink="http://www.w3.org/1999/xlink" id="Layer_1" x="0" y="0" enable-background="new 0 0 91.1 154.6" version="1.1" viewBox="0 0 91.1 154.6" xml:space="preserve"><switch><g><g><rect width="63.6" height="20" x="23.8" y="134.6" fill="#8F5D9B"/><circle cx="40.2" cy="24" r="22.5" fill="none" stroke="#8F5D9B" stroke-miterlimit="10" stroke-width="2"/><circle cx="40.2" cy="24" r="12.7" fill="none" stroke="#8F5D9B" stroke-miterlimit="10" stroke-width="2"/><g><path fill="#764E7F" d="M89.4,71.3L89.4,71.3L89.4,71.3C89.4,71.3,89.5,71.3,89.4,71.3c-1-0.3-5.7-1.5-10.7-3v12.6h-4V67.3 c-3-0.9-7-1.8-10-2.6v16.2h-4V63.1c-4-0.9-5.7-1.1-6.7-1.3c-0.3,0-0.6-0.1-0.9,0c-0.2,0-0.4,0-0.6,0c0,0-0.1,0-0.1,0 c-0.2,0-0.7,0.1-0.7,0.1v18.8h-4V64c0,0,0,0.1,0,0.1V27.8c0-4.3-2.7-6.9-7.9-6.9h-0.7c-3.6,0-6.4,3.5-6.4,6.9V88l-0.1,0.2 c0,0-1.8,1.9-4.8-0.7C23,83.3,13.2,74.3,9.3,72.2C2.5,68.6,0,75.1,0,75.1l33.8,53.8c0,0,33.7,0,41.1,0 c2.9,0,11.4-18.1,12.6-20.2C90.2,104.1,92.9,71.9,89.4,71.3z"/></g></g></g></switch></svg>